<svg xmlns="http://www.w3.org/2000/svg" xmlns:xlink="http://www.w3.org/1999/xlink" viewBox="0 0 1200 1200">
  <g id="shoe_stripes" style="isolation: isolate" class="g_to_interact_with">
    <path d="M465,536c13.61,2.22,46.92,8.07,56,17v2c-36,25.8-72.55,51.85-112,74-11.1,6.23-21.62,19.25-35,23-10.32,2.89-49.16-12.39-58-16v-3C361.24,595.62,421.42,575,465,536Z"/>
    <path d="M576,566c15.52,1.27,42.07,8.66,54,16v3L485,686c-15.85-5.14-47.14-7.17-57-19,8.12-12.76,29.37-18.61,42-27Z"/>
    <path d="M686,596c20.84.73,37.94,8.42,56,13l-1,4L599,714l-56-14c0-4.38,2-5.22,5-9Z"/>
    <path d="M368,654h2c-1.39,1.92-.1.6-2,2Z"/>
  </g>
  <g id="shoe_sole" style="isolation: isolate" class="g_to_interact_with">
    <path d="M46,692c15.16,3.1,32.87,9.85,48,14,15.5,4.25,31.2,3.3,50,4,5.57.21,9.51,3.54,16,2,2.33-.55,4.42-1.87,8-2,17.74-.66,39.44,1.58,54-2h48c16.68-4,52.12-3.67,66-2,1.92.23,4.74-1.7,6-2,9.69-2.34,18.06.32,24,2h68c28.53,7.1,61.55,4.69,90,12,58.43,15,122.3,25.29,180,40h26c4.87,1.27,10.59,4.91,16,6l12-2c.92.32,3.08,3.64,4,4l14-1c.84.25,3.16,2.72,4,3,8.58,2.87,21.85,2,30,4l20-2c6.7,1.64,16.09,6.11,22,8h27c23.24,0,40.61-2,64-2,21.45,0,48.94,2.44,67-2,14.39-3.54,29.79,1.53,44-2,28.49-7.08,58.29-9.41,86-18,4.37-1.35,9.71-5.24,14-7l9-2c6-3.11,6-9.23,15-10,1.76,2.6,4.41,5,3,8-2.24,9.92-18.58,18.5-26,24-4.63,3.43-10.13,9.1-15,12-4.08,2.43-8.17,2.48-12,5-4.16,2.74-8.34,7.9-13,10-3.9,1.76-7.35,1-11,3-1.81,1-3.72,4.18-6,5-3,1.09-5.71-.43-8,1-5.33,3.32-11.45,9-18,12-6.72,3-12.24,2.75-19,6-48.33,23.25-108.35,33.48-165,49-7,1.93-14.11,2.54-20,4H850a161.36,161.36,0,0,1-36,4H790c-10.56,2.54-29.43,2.59-40,0H732c-12.24,0-26.75.28-36-2H674c-13.31-3.29-31.64-4.91-44-8H618c-51.36-12.75-114.47-16-177-16-19.05,0-41,.39-57,2-18.42,1.86-40.6-1.8-56,2H306c-13.83,3.36-29.5,4-47,4H234c-15.23,3.65-38.51,2-57,2-45.5,0-90.75-2-122-17-5.91-2.83-11.57-2.86-17-6-6.47-3.75-27.72-22.18-28-31,2.28-3.32,1-7.91,3-12,.58-1.19,3.49-2.46,4-4,2-6-2.87-12,0-18,.57-1.19,3.49-2.47,4-4,1.83-5.53-2.3-8.66,0-14,1.08-2.51,5.16-5.48,6-8,1.83-5.52-2.25-8.65,0-14,6-14.27,8.87-15.87,9-38,2.42-.91,1.59-1.07,4-2C40.38,694,44.19,693.44,46,692Z"/>
  </g>
  <g id="shoe_front" style="isolation: isolate" class="g_to_interact_with">
    <path d="M1130,625c20.23,4.23,39.82,20.33,47,37,2.71,6.28,1.64,20.33,3,26,1.65,6.86,1.1,37.16-1,42-1.67,3.86-7.47,10.9-11,13-6.69,4-13.62,3-22,6-3.53,1.27-8.31,4.68-12,6-8.88,3.17-16.46,2.44-26,5-16.48,4.43-36.42,7.76-54,12h-18c-7.34,1.77-22.66,2.23-30,4H968c-12.64,3-32.2,2-48,2-24.11,0-52.45,1.15-72-3a10.92,10.92,0,0,0-2-3c4.57-16.37,21.66-25,33-35,5.92-5.24,12-11.93,19-16,14.36-8.3,32.73-13.37,48-20l8-1c1.65-.63,4.33-3.46,6-4h14c5.24-1.32,11.55-2,18-4,5.46-1.69,16-5.5,22-7,3-.75,4.92,1.5,8,1,5-.82,11.64-2.28,18-4,11.8-3.18,25.16-8.3,36-12,10-3.43,18.36-2.56,27-7,4.82-2.48,10.47-7.35,15-10,3.21-1.88,6.39-1.68,9-4s4.37-6.42,7-9C1134.25,631.74,1132.84,629.39,1130,625Z"/>
  </g>
  <g id="shoe_outside" style="isolation: isolate" class="g_to_interact_with">
    <path d="M334,444a49.56,49.56,0,0,0-2-12V410c-1.47-6.24-4.38-20.9-2-30,1.69-6.48,6.78-12.26,9-18,1.5-3.86.31-6.24,2-10,1.46-3.24,5.18-7.14,7-10,3.49-5.48,3.73-12.34,7-18,3.67-6.36,10-10.91,15-16,12.7,2.61,15,11.39,24,17-3.51,7-10.49,12-16,17a33.79,33.79,0,0,0,1,8c6.88,3.28,12.92,8.1,19,12,5.11,3.28,10.78,3.82,16,7l6,7a76.28,76.28,0,0,0,22,10c5.17-8.19,10.08-16.09,14-26,1.75.63,1,.19,2,1,4.14,1.23,6.41,4.58,10,6,16.22,6.42,45.74,12.79,54,26-11.16,1.62-23.6,8.11-30,15-8.6-1.93-14.57-6.11-22-8H450c-1.16-.26-4.17-2.35-6-2-2.95.57-7.82,4.19-12,5-3,.59-5-1.76-8-1-1.61.41-4.41,3.45-6,4h-6c-6.93,2.42-12,9-18,12-2.82,1.4-3.81-1-6,0v2c-1.15.65-3.66,1.86-4,2l-9,1c-2,1.08-4.08,4.68-6,6C362.64,433.38,342.61,443.1,334,444Z"/>
    <path d="M88,400c8.4-.1,15,3.8,17,10,3.33,6.16-3.39,15.79-3,22,.33,5.2.24,23.15-2,31-1.15,4,1.81,4.86,2,9v16c2.93,10,10,12.3,13,18,.67,3,1.33,6,2,9,2.33,2.58,11.8,7,15,8,3.38,1.06,5.72-1.33,8-1,2.66.38,5.69,3.33,8,4h21c3.82.6,10.94,4,17,2,3.9-1.29,9.1-5,14-6,3-.62,5,1.77,8,1,5-1.3,9.06-7.35,14-9l20-1c5.09-1.92,7.8-7.35,12-10,5.79-3.65,13.59-2.39,17-4,2.91-1.37,5.83-5.82,9-7,16.25-6.07,31.29-8.59,43-19,5.06-4.5,9-10.29,15-14,9.82-6.1,20.55-8.78,30-15,4.12-2.71,13.53-12.63,19-10,7.1,4.87,9.87,15.06,14,23,6.37,12.23,15.19,18.86,14,37-5.68,4.69-8.73,12.78-15,17-3.72,2.51-8.22,2.58-12,5-4.72,3-10.58,7.81-16,10l-6,1c-4.37,2.8-7.46,9.25-12,12-7,4.25-13.12,6.59-20,11l-2,3c-3,1.54-5.45.39-8,2-2.92,1.84-5.13,6.26-8,8-4.95,3-9.82,3.07-15,6-3,1.71-5.8,6.45-9,8-4.66,2.25-10.15,1.08-14,4-3.1,2.35-4.54,7.9-8,10-3.69,2.24-7.2,1.91-11,4-2.91,1.6-5.81,5.69-9,7-4.14,1.7-6.79.86-10,3-4.8,3.21-8.9,9.06-14,12-5.42,3.13-12.41,2.65-15,4-3.36,1.75-2.85,3.67-9,4-7.67-8.36-23.34-8.54-34-14-3.59-1.84-8.25-5.39-12-7-2.72-1.17-5.82-.32-8-2-.63-.48-1.37-3.63-2-4-3.55-2.08-11.95-1.17-16-3-7.82-3.54-15.72-10.18-23-14-7.83-4.11-15.75-5.35-23-10-3-1.93-5-6-8-8-8.19-5.53-27.78-11.78-31-21-.8-1.18-.77-1.68-1-4,4-3.53,9.41-7.14,10-14-15.2-17.84.76-64.75,6-82,2.41-7.93,2.72-17.17,7-24C71.73,410.45,81.86,406.34,88,400Z"/>
    <path d="M544,412a93,93,0,0,0,2,22h-4c-5.89-5.15-17-2.71-18-13C529.55,417.44,535.86,412.77,544,412Z"/>
    <path d="M606,462c-8.11.21-16.75-3-17-11l3-1c2.75-2.6,6.09-1.88,10-1C603.22,453.88,605.43,456.22,606,462Z"/>
    <path d="M646,474v6l-6-1v-4h2C643.18,474.2,643.68,474.23,646,474Z"/>
    <path d="M658,480c2.33.2,2.83.19,4,1,5.81,2,8.11,7.15,12,11v2h-2c-3.85-3.59-10.59-6.22-15-9C657.79,482.51,657.47,482.15,658,480Z"/>
    <path d="M754,518h2c.23,4.86,2,9.68,1,12-1.47,2.54-2.12,2-6,2-1.41-1.61-3.31-1.71-5-3-.8-1-.35-.27-1-2-1.21-2.11-.48-2.23,0-5A26.52,26.52,0,0,0,754,518Z"/>
    <path d="M812,550c14.82,0,29.18,8,42,12,36.29,11.19,72,18.8,106,31,11.72,4.21,21.9,3.69,34,8,23,8.19,51.5,12.8,76,19,18.56,4.7,41.64,1.24,60,5,1.77,3.42,6.35,9.9,3,15-3.35,9.35-12.56,12.58-21,17-20.14,10.55-47.83,19-72,25h-20c-2.41.78-5.62,4.11-8,5l-12,1c-7.15,2.12-18,6-26,8H960c-44.93,14.57-98.19,41-118,80-4.28-1.42-7.24-4.82-12-6-5-1.23-9.13,1.33-12,2-1.12.26-25.2-1.31-28-2-4.08-1-10.73-4-14-5l-14,1c-.91-.36-3.08-3.68-4-4l-12,2c-5.21-1-11.59-4.74-16-6H704c-7.59-1.93-15.06-5.15-24-7a10.92,10.92,0,0,0-2-3c4.33-19.34,22.16-24.18,35-35,11.13-9.37,23.15-19.48,35-28,4.23-3,9.13-4.58,13-8,2.41-2.13,4.22-6.31,7-8,3.17-1.92,6.38-1.68,9-4,8.14-7.21,16.08-15.52,25-22,14.59-10.58,36.32-21,37-45a84.65,84.65,0,0,1-10-12c-2-3-1.78-7.1-4-10-6-7.9-15.44-10-16-24A10.92,10.92,0,0,0,812,550Z"/>
  </g>
  <g id="shoe_around_stripes" style="isolation: isolate" class="g_to_interact_with">
    <path d="M686,596c-14.33,13.43-33.5,23-50,34-3.43,2.3-6.64,6.7-10,9-9.61,6.59-19.6,11.25-29,18-5.62,4-11,10.45-17,14-8.14,4.77-35.24,19.36-37,28,11,6.09,25.65,6.11,39,10,4,1.17,11.35,5.18,18,3,7.89-2.59,19-14.23,26-19,5.31-3.64,10.64-5.42,16-9,16.84-11.27,33-25.69,50-37,11-7.37,21.34-14.89,32-22,5.52-3.68,14.06-5.92,17-12,.8-1.18.77-1.68,1-4h-2C732.79,604.05,697.94,596.44,686,596Z"/>
    <path d="M576,566c-12.07,11.27-30,20.61-44,30-22.08,14.78-43.72,32.13-66,47-7.85,5.24-35.24,17.34-37,26,12.89,7.18,28.82,8.84,45,13,2.91.75,8.81,3.7,14,2,4.37-1.43,8.38-6.59,12-9,10.18-6.78,20-12.26,30-19,3.34-2.24,6.63-7,10-9,12.2-7.35,23.49-13.77,35-22,3.72-2.66,7.23-7.42,11-10,15.06-10.31,30.64-19.06,44-31-.63-1.75-.19-1-1-2-3.94-9.37-40.76-10.53-43-16C583.49,565.46,580.24,566.05,576,566Z"/>
    <path d="M464,537c-10.27,10.34-25.7,16.81-38,25-22.92,15.26-46.07,33-70,47-8.78,5.12-35.17,16.06-39,24-.8,1.18-.77,1.68-1,4h2c9.81,6.8,29.62,7.58,42,12,3.84,1.37,10.2,5.58,14,4,11.21-3,23.84-18.07,34-24,24.69-14.42,46.91-30.59,70-46,5.46-3.64,12.16-8.74,18-11,4.41-1.71,7.3-.83,11-3,4.64-2.72,7.18-9.29,11-13-.63-1.75-.19-1-1-2C514.07,547,474.83,537.69,464,537Z"/>
    <path d="M458,502c25.15-.75,38.61,6,56,12,14.66,5.08,30.39,8.07,44,13l12,2c12.53,4.56,29.33,9.06,42,13,5.7,1.77,10.4,1,16,3,30.9,11.29,65.18,22.37,96,33,19.46,6.71,38.67,11.12,58,17,9.29,2.83,21.86,2.18,25,11,.8,1.18.77,1.68,1,4-7.52,6.91-15.61,10.67-23,17-6.73,5.76-13.66,13-21,18-3.63,2.49-7.72,3.19-11,6-6,5.17-14.41,14-21,18-3.19,1.93-6.32,1.71-9,4-6.74,5.75-13.65,13-21,18-14.9,10.2-31.27,18.74-43,32-5,5.63-4.77,15.5-9,22-36.19-6.3-70.28-14.35-104-23-24.39-6.26-50.14-6.13-74-12H456c-16.59-4.12-36.94-4-58-4H366c-7.47-2.25-11.75-10.33-17-15-6.25-5.55-26.91-16.73-35-20-18.45-7.47-35.81-15.46-53-24-7.31-3.63-17.84-2.19-19-12,15.61-9.57,32.33-20.89,48-30,4.12-2.4,8.16-2.47,12-5,18.13-12,37.27-26,56-37,9.52-5.57,18.87-9,28-15,10.51-6.93,21.3-16.56,32-23,6.69-4,12.29-6.2,19-10,3.18-1.8,6-6.23,9-8C450,504.64,454.48,504.64,458,502Z"/>
  </g>
  <g id="shoe_inside" style="isolation: isolate" class="g_to_interact_with">
    <path d="M104,396c34.22-.12,31.48,19.79,37,48q-.5,10-1,20c1.1,4.46,3.83,9.25,5,14,17,10.74,57.08,17.67,85,10a219.16,219.16,0,0,0,30-11c7.16-3.18,15-3.14,22-6,5.26-2.15,9.41-7.42,14-10,7.27-4.09,14.11-4.86,22-8,4.2-1.67,8-6.39,12-8l12,1c2.78-.83,7.59-3.27,11-5,5-2.51,13.71-6.18,18-10,3.1-2.76,4.88-7.2,9-9,4.72-2.06,8.29-1.81,13-4,6.84-3.18,13.4-10.28,21-13h6c4.14-1.15,10.32-3.75,14-5,6.12-2.08,21.67-1.75,23,1,.71,1.54.13.14,0,3-44,7.19-70.6,25.62-101,46-3.21,2.15-4.95,6.87-8,9-2.82,2-6.45,1.84-9,4-1.74,1.47-3.07,4.78-5,6l-9,2c-4.41,2.23-8.69,7.93-13,10s-8.43-1.19-11,0c-7.93,3.68-13.78,13.56-22,17h-7c-2.1.77-4.2,3.89-6,5-5.34,3.29-9.13,2.56-16,5-2.21.78-4.26,4.16-6,5-3.86,1.86-7-.61-10,0-.92.18-2.71,2.86-3,3-2.71,1.32-12.17,2-15,3-5.66,2.08-13.6,1.69-20,4-26.17,9.45-45.24,8.18-68-3-6-3-14-4.4-17-10v-4c-1.11-2.49-4.92-3.86-6-6-3.79-7.51-1.4-17.54-3-30-.36-2.83-3.1-3.15-2-7,2.24-7.84,2.36-25.81,2-31-.42-6,5.25-14.51,3-20-1.43-4.5-4.45-5.75-6-10a19.17,19.17,0,0,0,2-4A10.92,10.92,0,0,0,104,396Z"/>
  </g>
  <g id="shoe_leather" style="isolation: isolate" class="g_to_interact_with">
    <path d="M544,434c-.44,7.09-3.25,12.2-5,18-3.69,12.24-5.39,25.14-6,40,7,3.35,13.43,6.88,23,5,6-12.48,11.67-31.64,12-49,13.26-.37,21.72,7.15,30,12,4.61,2.7,8.41,0,10,6,1.63,3.46-1.09,14.15-2,18-1.34,5.71,2,10,3,14,6,3.69,12.57,6.18,21,8,5.84-9.53,5.38-14.32,8-28h4c6.27,4.26,28.81,11.91,31,18,5.57,8,3.78,36.42,6,48,7.6,3.72,14,8.6,25,9l1-3c6.85-11-5.31-30.27-2-38,1.27-3.24.88-2.63,5-3,9.82,8.86,46.17,14.28,47,29-3.44,4.82-1.25,10.09-1,18,6.54,4,13.65,7.72,24,8-.06-6.69,3.12-15.94,7-19,.77-.68,2.23-1.31,3-2,16.61,4.88,17.63,10.39,26,23,2.68,4,8.38,6.2,11,10l3,8c4.33,6.64,10.69,8.92,11,20-4.66,5.22-5.29,13.92-10,19-3.27,3.53-8.31,4.83-12,8-7.51,6.45-14.92,14.18-23,20-4.22,3-9.15,4.57-13,8a614,614,0,0,1-55,44c-7.08,5-17.06,10.07-23,16-2.19,2.19-2.35,6.26-5,8l-8,2c-5.78,3.49-11.31,12.49-12,21-10.25-.16-15.19-3.75-26-4,.29-25.53,19.89-34.17,35-45,28.14-20.16,57.61-40.67,84-63,10.33-8.74,22.18-14.66,33-23,2.58-2,5.49-6.91,3-11-4.85-8-23-8-33-11-19.82-6-41.34-13.15-60-20-6.38-2.34-12-1.35-18-4-44.67-19.78-98.54-29.1-146-46-5.63-2-10.27-1.26-16-3-3-.91-7-3.21-10-4h-8c-11.84-4-37.74-19.86-58-14-13.64,3.95-24.57,16.3-36,23-26,15.22-50.39,33-76,48-25.78,15.06-49.94,32.27-76,46-7.33,3.86-26.95,11.27-28,20,10.63,5.78,22.22,8.65,34,14,15.33,7,32.15,16.27,47,24,11.86,6.18,33.79,13.34,37,27h-2c-4.53,2.72-9.77-1.43-16,0-13.95,3.2-37.63,2-57,2a60.41,60.41,0,0,0-15,2H228c-4.6.06-7.1,1.29-10,2H166c-16.94,0-38.28,1.43-52-2H104c-12.35-3.12-25.68-6.25-38-10-6.61-2-14.11-1.38-16-8-2.14-4.5,1.88-18.22,0-26-7.7-31.79-4-77.94-4-116,1.75-.63,1-.19,2-1,13.19,3.71,23.67,16.1,35,22,1.08.56,3.56-.6,6,1l3,5c4.65,3.52,10.74,4.23,16,7,18.77,9.86,39.81,18,60,27,4.39,2,35.23,17.11,39,16,4.76-1.39,24-10.85,30-16,1.63-1.39,3.11-5,5-6l10-2c2.16-1.26,4-4.79,6-6,4.62-2.77,9.79-2.94,14-6l6-8,17-6c14.4-8.34,28.61-19.52,43-28,7.35-4.33,14.2-7.08,21-12l7-8c17.49-11.21,49.62-15.49,50-43-3-3.66-2.69-8.36-5-13-3.29-6.62-22.11-33.07-19-41,1.17-5.89,4.06-4.55,7-8,18.53-21.73,63.72-29.89,92-12v1c-6,2.45-32.84,24.5-30,31,2.15,5.38,13.63,8.93,21,9,2.79-2.64,6.61-2.79,10-5,6.36-4.15,24.53-22.73,34-19C532.89,428.77,536.05,433.17,544,434Z"/>
  </g>
  <g id="shoe_laces" style="isolation: isolate" class="g_to_interact_with">
    <path d="M782,544c-.21,9-3.77,10.28-4,20-9.4.22-23.25-3.2-24-12-3.67-5.15.45-11.72,1-19-11.78-6.77-20.39-13.63-35-18-5.83-1.74-14-5.95-17,1-.51.92,3.63,26.92,2,36a21.58,21.58,0,0,1-7,1c-3-2.67-8.94-3.48-13-5-2-3.56-5.74-8.21-7-12-3.45-10.37-1.7-26.09-4-36,.33-2,.67-4,1-6-1-4.64-5.69-6.76-8-10-2.09-2.94-.24-3.47-4-5-1.29-.88-2.47-.89-5-1-1.23,1.8-2.59,2.48-4,4-4.43-1-10.81-4.43-14-3-2.87,1.12-1.84.17-3,3-2.22,3.48-1.76,15.67-2,20a25,25,0,0,0-5,4c-9.85-1.79-16.22-4.43-22-10,3.89-17.05.66-36.37-8-46-4.68,1.24-6.91,3.73-12,5-2.92-3.47-10.33-6.54-16-7-8.94,10.76-8.15,33.42-14,47a17.82,17.82,0,0,0-4,3c-10.17.48-21-1.9-21-12,2.45-4.06.59-13.24,2-18,2.57-8.71,8.1-21.47,9-30,.36-3.38-3.38-5.67-4-8-1.18-4.41,1.84-8.8,2-14-8.26-.34-13.64.53-17,5-.75,1.07-.6.95-1,3-2.33.2-2.83.19-4,1-16.61,5.35-22.7,25.09-44,26-4.53-3.9-11.63-5.16-16-9,.33-2,.67-4,1-6,4.23-2.9,6.28-7.71,10-11,3.28-2.9,8.72-3.11,12-6,2.51-2.21,5.49-7.79,8-10,2.86-2.52,6.36-2.07,10-4,3.1-1.64,6.08-6.52,9-8l8-1c1.6-.6,4.37-3.56,6-4,11-3,32.51,11.91,37,17,3.51,4,3.54,11,9,13h14a56,56,0,0,1,12,5c6.67,3.86,10.63,13.17,15,16,3.73,2.41,7,3.06,10,6,2.44,2.4,4,6.19,7,8,11.83,7.15,26.69,1.92,40,8,6.56,3,10,9.54,15,14,4.68,4.15,11.34,4.72,17,8,6.2,3.59,11.87,10.43,18,14l10,2c5.42,2,11.78,5.43,18,7,9.35,2.37,16.25,0,24,3,4.13,1.61,5,5.81,8,8l6,1c4.08,1.76,6.06,6.06,9,9,4.67,4.66,10.45,6,11,15-1.75.63-1,.19-2,1C795.44,545.63,790.65,544.05,782,544Z" fill="none" fill-rule="evenodd"/>
  </g>
  <g id="flap_mark" style="isolation: isolate" class="g_to_interact_with">
    <path d="M374,352c.2-2.33.19-2.83,1-4,1.63-5.45,12.68-21.32,19-22,1.57-1.24.51-.64,2,0,6.82,2.25,12.48,8.32,18,12,14.26,9.51,26.63,18.93,46,23a15.61,15.61,0,0,1,1,5c-7.24,5.79-9.61,19.95-18,24v-1c-12.77-5.19-23.87-15.87-35-23a72.22,72.22,0,0,0-12-6l-10-1C381.44,356.7,381.36,352.83,374,352Z"/>
  </g>
  <g id="shadow_Image" data-name="shadow Image">
    <image id="shadow_Image-2" data-name="shadow Image" width="1200" height="896" transform="translate(0 6)" xlink:href="shoe_original1.png"/>
  </g>
</svg>
